<mxfile host="app.diagrams.net" modified="2022-06-11T14:53:19.308Z" agent="5.0 (Windows NT 10.0; Win64; x64) AppleWebKit/537.36 (KHTML, like Gecko) Chrome/102.0.5005.63 Safari/537.36 Edg/102.0.1245.33" etag="BYgQtoZCp5tTIMyNF-DI" version="19.0.3" type="github">
  <diagram id="DwI2AejB35fPrwNU_iSN" name="Page-1">
    <mxGraphModel dx="826" dy="457" grid="1" gridSize="10" guides="1" tooltips="1" connect="1" arrows="1" fold="1" page="1" pageScale="1" pageWidth="827" pageHeight="1169" math="0" shadow="0">
      <root>
        <mxCell id="0" />
        <mxCell id="1" parent="0" />
        <mxCell id="NDi10j0QX_hMf3v7IT01-8" style="edgeStyle=orthogonalEdgeStyle;rounded=0;orthogonalLoop=1;jettySize=auto;html=1;exitX=0.5;exitY=1;exitDx=0;exitDy=0;entryX=0.5;entryY=0;entryDx=0;entryDy=0;" edge="1" parent="1" source="NDi10j0QX_hMf3v7IT01-1" target="NDi10j0QX_hMf3v7IT01-2">
          <mxGeometry relative="1" as="geometry" />
        </mxCell>
        <mxCell id="NDi10j0QX_hMf3v7IT01-16" style="edgeStyle=orthogonalEdgeStyle;rounded=0;orthogonalLoop=1;jettySize=auto;html=1;exitX=1;exitY=0.5;exitDx=0;exitDy=0;entryX=0.001;entryY=0.078;entryDx=0;entryDy=0;entryPerimeter=0;" edge="1" parent="1" source="NDi10j0QX_hMf3v7IT01-1" target="NDi10j0QX_hMf3v7IT01-14">
          <mxGeometry relative="1" as="geometry" />
        </mxCell>
        <mxCell id="NDi10j0QX_hMf3v7IT01-1" value="DataBase" style="html=1;" vertex="1" parent="1">
          <mxGeometry x="40" y="40" width="110" height="50" as="geometry" />
        </mxCell>
        <mxCell id="NDi10j0QX_hMf3v7IT01-2" value="ClientApp" style="html=1;" vertex="1" parent="1">
          <mxGeometry x="40" y="200" width="110" height="50" as="geometry" />
        </mxCell>
        <mxCell id="NDi10j0QX_hMf3v7IT01-14" value="SheduleApp" style="shape=umlFrame;whiteSpace=wrap;html=1;width=80;height=30;" vertex="1" parent="1">
          <mxGeometry x="280" y="40" width="480" height="320" as="geometry" />
        </mxCell>
      </root>
    </mxGraphModel>
  </diagram>
</mxfile>
